<svg xmlns="http://www.w3.org/2000/svg" xmlns:xlink="http://www.w3.org/1999/xlink"><defs><style>
    .sprite-symbol-usage {display: none;}
    .sprite-symbol-usage:target {display: inline;}
  </style><symbol viewBox="-337 273 123.5 256" id="facebook"><path d="M-260.9 327.8c0-10.3 9.2-14 19.5-14s21.3 3.2 21.3 3.2l6.6-39.2s-14-4.8-47.4-4.8c-20.5 0-32.4 7.8-41.1 19.3-8.2 10.9-8.5 28.4-8.5 39.7v25.7H-337V396h26.5v133h49.6V396h39.3l2.9-38.3h-42.2v-29.9z" /></symbol><symbol viewBox="0 0 24 24" id="google_plus"><path d="m14.969 11.814.001.146a8.015 8.015 0 0 1-.929 3.757l.021-.044a6.588 6.588 0 0 1-2.55 2.632l-.032.017a7.55 7.55 0 0 1-3.851.951h.008-.022a7.457 7.457 0 0 1-2.995-.623l.048.019a7.515 7.515 0 0 1-4.044-4.013l-.018-.049c-.382-.876-.604-1.896-.604-2.969S.224 9.545.625 8.62l-.019.049a7.515 7.515 0 0 1 4.013-4.044l.049-.018a7.365 7.365 0 0 1 2.951-.606h.018-.001L7.761 4c1.937 0 3.695.762 4.992 2.004l-.003-.003-2.073 1.99a4.187 4.187 0 0 0-3.046-1.177h.006-.031c-.864 0-1.671.24-2.36.657l.02-.011a4.865 4.865 0 0 0-.022 8.342l.022.012a4.508 4.508 0 0 0 2.339.646h.033-.002.052c.549 0 1.077-.088 1.572-.25l-.036.01a4.044 4.044 0 0 0 1.204-.607l-.011.008a4.39 4.39 0 0 0 .81-.807l.008-.01c.198-.25.369-.535.5-.841l.009-.024c.093-.22.17-.478.22-.746l.004-.024H7.634v-2.625h7.208c.078.382.124.821.126 1.27v.002zM24 10.541v2.189h-2.177v2.177h-2.189V12.73H17.46v-2.189h2.177V8.364h2.189v2.177z" /></symbol><symbol viewBox="0 0 258 40" id="header_logo"><path fill-rule="evenodd" clip-rule="evenodd" d="M213.956 8.225c-2.23 0-4.021-1.791-4.021-4.094 0-2.267 1.827-4.131 4.094-4.131 2.266 0 4.13 1.791 4.13 4.058 0 2.302-1.864 4.167-4.203 4.167Zm-76.435 24.052h-6.653v-28h6.762v7.676s2.998-2.559 6.909-2.559c6.616 0 10.528 5.593 10.528 11.698 0 6.25-3.985 11.734-10.309 11.734-2.96 0-5.154-.841-7.237-2.888v2.34Zm-21.165.549c-6.909 0-11.661-4.204-11.661-11.734 0-6.8 4.862-11.698 11.478-11.698 6.47 0 11.039 4.277 11.039 12.283l.002.194.007.315c.008.275.015.514-.009.843h-15.791c.585 2.669 2.705 3.948 5.264 3.948 2.102 0 3.522-1.397 4.658-2.844l.204-.263s3.314 1.911 4.869 2.845l.431.262c-1.974 3.51-5.776 5.849-10.491 5.849Zm-41.599-.549L66.203 9.833h7.165l4.46 12.429 4.094-12.429h5.446l4.314 12.502 4.423-12.502h7.055l-8.444 22.444H88.83l-4.168-12.063-4.02 12.063h-5.886Zm41.343-17.18c2.12 0 3.29 1.023 4.094 3.18h-8.517c.841-2.084 2.12-3.18 4.423-3.18Zm26.904.585c3.07 0 5.3 2.412 5.3 5.264 0 3.18-1.681 5.848-5.008 5.848-3.545 0-5.848-2.23-5.848-5.702 0-3.253 2.376-5.41 5.556-5.41Zm26.758 17.363c-6.873 0-12.136-5.63-12.136-11.88 0-6.726 5.373-11.77 12.282-11.77 6.799 0 12.099 4.898 12.099 11.66 0 6.836-4.935 11.99-12.245 11.99Zm.109-17.254c3.18 0 5.374 2.267 5.374 5.155 0 3.509-2.047 5.665-5.41 5.665-3.107 0-5.41-2.339-5.41-5.336 0-3.071 2.156-5.484 5.446-5.484Zm29.207 16.486h-6.068l-9.394-22.444h7.603l4.898 13.123 4.606-13.123h7.165l-8.81 22.444Zm18.314-22.444h-6.799v22.444h6.799V9.833Zm3.655 11.332c0 6.25 5.264 11.88 12.136 11.88 7.311 0 12.246-5.154 12.246-11.99 0-6.762-5.301-11.66-12.1-11.66-6.908 0-12.282 5.044-12.282 11.77Zm17.619-.22c0-2.887-2.193-5.154-5.373-5.154-3.29 0-5.447 2.413-5.447 5.484 0 2.997 2.303 5.337 5.41 5.337 3.363 0 5.41-2.157 5.41-5.666Z" /><path d="M252.082 24.182c2.303 0 4.203 1.9 4.203 4.203 0 2.303-1.9 4.204-4.203 4.204-2.303 0-4.204-1.9-4.204-4.204 0-2.303 1.901-4.203 4.204-4.203Z" /><path fill-rule="evenodd" clip-rule="evenodd" d="M36.65 34.484c-1.3 2.167-4.44 2.167-5.74 0L12.781 4.271h36.084c2.602 0 4.209 2.839 2.87 5.07L36.65 34.484Z" fill="#FFD723" /><path fill-rule="evenodd" clip-rule="evenodd" d="M18.128 34.484c1.3 2.167 4.44 2.167 5.74 0L41.997 4.271H5.912c-2.602 0-4.209 2.839-2.87 5.07l15.086 25.143Z" /><path fill-rule="evenodd" clip-rule="evenodd" d="M12.781 4.271h29.215L27.39 28.617 12.781 4.271Z" fill="#F6F6F6" /></symbol><symbol viewBox="0 0 5.44 9.83" id="link_arrow"><path d="M5.3 4.64.66.17A.39.39 0 0 0 0 .45v8.93a.39.39 0 0 0 .66.28L5.3 5.2a.39.39 0 0 0 0-.56Z" fill="currentColor" /></symbol><symbol viewBox="-271 283.9 256 235.1" id="linkedin"><path d="M-264.4 359.3h49.9V519h-49.9zM-240.5 283.9c-18.4 0-30.5 11.9-30.5 27.7 0 15.5 11.7 27.7 29.8 27.7h.4c18.8 0 30.5-12.3 30.4-27.7-.4-15.8-11.7-27.7-30.1-27.7zM-78.2 357.8c-28.6 0-46.5 15.6-49.8 26.6v-25.1h-56.1c.7 13.3 0 159.7 0 159.7h56.1v-86.3c0-4.9-.2-9.7 1.2-13.1 3.8-9.6 12.1-19.6 27-19.6 19.5 0 28.3 14.8 28.3 36.4V519h56.6v-88.8c0-49.4-27.8-72.4-63.3-72.4z" /></symbol><symbol viewBox="-271 296.6 256.4 208.4" id="twitter"><path d="M-14.6 321.2c-9.4 4.2-19.6 7-30.2 8.3 10.9-6.5 19.2-16.8 23.1-29.1-10.2 6-21.4 10.4-33.4 12.8-9.6-10.2-23.3-16.6-38.4-16.6-29 0-52.6 23.6-52.6 52.6 0 4.1.4 8.1 1.4 12-43.7-2.2-82.5-23.1-108.4-55-4.5 7.8-7.1 16.8-7.1 26.5 0 18.2 9.3 34.3 23.4 43.8-8.6-.3-16.7-2.7-23.8-6.6v.6c0 25.5 18.1 46.8 42.2 51.6-4.4 1.2-9.1 1.9-13.9 1.9-3.4 0-6.7-.3-9.9-.9 6.7 20.9 26.1 36.1 49.1 36.5-18 14.1-40.7 22.5-65.3 22.5-4.2 0-8.4-.2-12.6-.7 23.3 14.9 50.9 23.6 80.6 23.6 96.8 0 149.7-80.2 149.7-149.7 0-2.3 0-4.6-.1-6.8 10.3-7.5 19.2-16.7 26.2-27.3" /></symbol></defs><use id="facebook-usage" xlink:href="#facebook" class="sprite-symbol-usage" /><use id="google_plus-usage" xlink:href="#google_plus" class="sprite-symbol-usage" /><use id="header_logo-usage" xlink:href="#header_logo" class="sprite-symbol-usage" /><use id="link_arrow-usage" xlink:href="#link_arrow" class="sprite-symbol-usage" /><use id="linkedin-usage" xlink:href="#linkedin" class="sprite-symbol-usage" /><use id="twitter-usage" xlink:href="#twitter" class="sprite-symbol-usage" /></svg>